<svg xmlns="http://www.w3.org/2000/svg" width="1600" height="2100" viewBox="0 0 1600 2100">
  <defs>
    <style>
      .bg { fill: #fbfaf7; }
      .ink { fill: #111111; font-family: -apple-system, BlinkMacSystemFont, "PingFang SC", "Noto Sans CJK SC", "Microsoft YaHei", Arial, sans-serif; }
      .muted { fill: #5f6368; font-family: -apple-system, BlinkMacSystemFont, "PingFang SC", "Noto Sans CJK SC", "Microsoft YaHei", Arial, sans-serif; }
      .card { fill: #ffffff; stroke: #dedbd2; stroke-width: 2; }
      .yellow { fill: #f6c443; }
      .line { stroke: #f6c443; stroke-width: 8; stroke-linecap: round; stroke-linejoin: round; fill: none; }
      .soft { fill: #f5f1e8; }
      .code { fill: #202124; font-family: "SFMono-Regular", Consolas, Menlo, monospace; }
    </style>
  </defs>
  <rect class="bg" width="1600" height="2100"/>
  <text class="ink" x="140" y="180" font-size="96" font-weight="800">Sherlockdogs 安装指南</text>
  <text class="muted" x="144" y="250" font-size="38">手机微信发给自己，本机自动入库，并可继续进入 Codex 对话</text>
  <rect class="yellow" x="140" y="295" width="480" height="18" rx="9"/>

  <g transform="translate(140,380)">
    <rect class="card" width="1320" height="270" rx="30"/>
    <circle class="yellow" cx="92" cy="92" r="46"/>
    <text class="ink" x="77" y="109" font-size="48" font-weight="800">1</text>
    <text class="ink" x="170" y="92" font-size="48" font-weight="800">打开 Sherlockdogs</text>
    <text class="muted" x="170" y="146" font-size="34">Mac：双击 Sherlockdogs Start.app</text>
    <text class="muted" x="170" y="196" font-size="34">Windows：双击 1 OneClick Install.cmd</text>
    <text class="code" x="170" y="246" font-size="32">先安装本机后台服务，只在你的电脑上处理线索。</text>
  </g>

  <path class="line" d="M800 670 L800 755"/>

  <g transform="translate(140,770)">
    <rect class="card" width="1320" height="300" rx="30"/>
    <circle class="yellow" cx="92" cy="92" r="46"/>
    <text class="ink" x="77" y="109" font-size="48" font-weight="800">2</text>
    <text class="ink" x="170" y="92" font-size="48" font-weight="800">配置输出并连接微信</text>
    <text class="muted" x="170" y="154" font-size="34">Mac：双击 Sherlockdogs Connect WeChat.app</text>
    <text class="muted" x="170" y="208" font-size="34">Windows：双击 2 OneClick Configure.cmd，选择 Obsidian vault</text>
    <text class="muted" x="170" y="262" font-size="34">只在你主动连接后读取本机微信数据，不走 Sherlockdogs 中转。</text>
  </g>

  <path class="line" d="M800 1090 L800 1175"/>

  <g transform="translate(140,1190)">
    <rect class="card" width="1320" height="300" rx="30"/>
    <circle class="yellow" cx="92" cy="92" r="46"/>
    <text class="ink" x="77" y="109" font-size="48" font-weight="800">3</text>
    <text class="ink" x="170" y="92" font-size="48" font-weight="800">做一次 #2 测试</text>
    <text class="muted" x="170" y="154" font-size="34">从手机微信把一条测试内容发给自己的微信。</text>
    <text class="muted" x="170" y="208" font-size="34">Windows 可运行 Run Windows WeChat Smoke.cmd 生成 token 证据。</text>
    <text class="muted" x="170" y="262" font-size="34">看到入库结果或 codex_card=ok，才算主链路通过。</text>
  </g>

  <path class="line" d="M800 1510 L800 1595"/>

  <g transform="translate(140,1610)">
    <rect class="card" width="1320" height="250" rx="30"/>
    <circle class="yellow" cx="92" cy="92" r="46"/>
    <text class="ink" x="77" y="109" font-size="48" font-weight="800">4</text>
    <text class="ink" x="170" y="92" font-size="48" font-weight="800">日常发给自己，异常一键处理</text>
    <text class="muted" x="170" y="146" font-size="34">从微信、网页、X、小红书等把线索转发给自己的微信。</text>
    <text class="muted" x="170" y="196" font-size="34">Mac：OneTouchRepair 修复；Doctor 诊断。</text>
    <text class="code" x="170" y="240" font-size="32">Windows：3 OneClick Repair 修复；4 OneClick Report 上报。</text>
  </g>

  <g transform="translate(140,1890)">
    <rect class="soft" width="1320" height="170" rx="26"/>
    <text class="ink" x="44" y="56" font-size="36" font-weight="800">查看结果</text>
    <text class="muted" x="44" y="102" font-size="30">双击 Open Sherlockdogs Output，或用 Obsidian 打开本地 Markdown 图书馆。</text>
    <text class="muted" x="44" y="142" font-size="30">Obsidian 推荐，但不是必须。</text>
  </g>
</svg>
