<svg xmlns="http://www.w3.org/2000/svg" width="1600" height="900" viewBox="0 0 1600 900" role="img" aria-labelledby="title desc"><title id="title">Sherlockdogs macOS install guide with real logos</title><desc id="desc">Download from GitHub, open on macOS, connect WeChat, forward to yourself, generate Markdown and Codex tasks.</desc><rect width="1600" height="900" fill="#fafaf8"/><rect width="1600" height="900" fill="url(#grid)" opacity="0.45"/><style>
    text { font-family:-apple-system,BlinkMacSystemFont,"Segoe UI","PingFang SC","Microsoft YaHei",Arial,sans-serif; fill:#111; }
    .title{font-size:66px;font-weight:780}.sub{font-size:28px;fill:#626873}.h{font-size:27px;font-weight:740}.b{font-size:22px;fill:#656b74}.mono{font-family:ui-monospace,SFMono-Regular,Menlo,Consolas,monospace;font-size:21px;fill:#333}.pill{fill:#111}.pilltext{fill:#f5c542;font-size:23px;font-weight:760}.card{fill:#fff;stroke:#dedbd2;stroke-width:2.5;filter:url(#shadow)}.card2{fill:#fffdf5;stroke:#f0bd18;stroke-width:3;filter:url(#shadow)}.out{fill:#f7fbff;stroke:#b8d8ff;stroke-width:2.5;filter:url(#shadow)}.line{stroke:#f0b400;stroke-width:7;stroke-linecap:round;fill:none}.green{fill:#127c46}.yellow{fill:#f4bd19}.light{fill:#fff}
  </style><defs><filter id="shadow" x="-20%" y="-20%" width="140%" height="150%"><feDropShadow dx="0" dy="8" stdDeviation="10" flood-color="#000" flood-opacity="0.10"/></filter><pattern id="grid" width="38" height="38" patternUnits="userSpaceOnUse"><path d="M38 0H0V38" fill="none" stroke="#ededeb" stroke-width="1"/></pattern></defs><rect x="92" y="70" width="250" height="46" rx="23" class="pill"/><text x="122" y="101" class="pilltext">macOS PUBLIC BETA</text><text x="92" y="176" class="title">Mac 怎么安装</text><text x="94" y="225" class="sub">下载整个 macOS 文件夹，右键打开 Start，连接个人微信自聊，最后查看本地 Markdown / Codex 任务。</text><path d="M348 410 H430 M684 410 H766 M1020 410 H1102 M1356 410 H1395" class="line"/><path d="M1395 410 l-24 -17 M1395 410 l-24 17" class="line"/><g transform="translate(96,286)"><rect width="250" height="245" rx="30" class="card2"/><circle cx="66" cy="62" r="36" class="yellow"/><text x="66" y="75" text-anchor="middle" font-size="40" font-weight="780">1</text><circle cx="66" cy="137" r="34" fill="#fff" stroke="#ddd6c6" stroke-width="2"/><g transform="translate(42 113) scale(2.0)"><path d="M12 .297c-6.63 0-12 5.373-12 12 0 5.303 3.438 9.8 8.205 11.385.6.113.82-.258.82-.577 0-.285-.01-1.04-.015-2.04-3.338.724-4.042-1.61-4.042-1.61C4.422 18.07 3.633 17.7 3.633 17.7c-1.087-.744.084-.729.084-.729 1.205.084 1.838 1.236 1.838 1.236 1.07 1.835 2.809 1.305 3.495.998.108-.776.417-1.305.76-1.605-2.665-.3-5.466-1.332-5.466-5.93 0-1.31.465-2.38 1.235-3.22-.135-.303-.54-1.523.105-3.176 0 0 1.005-.322 3.3 1.23.96-.267 1.98-.399 3-.405 1.02.006 2.04.138 3 .405 2.28-1.552 3.285-1.23 3.285-1.23.645 1.653.24 2.873.12 3.176.765.84 1.23 1.91 1.23 3.22 0 4.61-2.805 5.625-5.475 5.92.42.36.81 1.096.81 2.22 0 1.606-.015 2.896-.015 3.286 0 .315.21.69.825.57C20.565 22.092 24 17.592 24 12.297c0-6.627-5.373-12-12-12" fill="#181717"/></g><text x="132" y="91" class="h">Download</text><text x="132" y="130" class="b">macOS</text><text x="132" y="168" class="mono">alpha.3</text></g><g transform="translate(432,286)"><rect width="250" height="245" rx="30" class="card2"/><circle cx="66" cy="62" r="36" class="yellow"/><text x="66" y="75" text-anchor="middle" font-size="40" font-weight="780">2</text><circle cx="66" cy="137" r="34" fill="#fff" stroke="#ddd6c6" stroke-width="2"/><g transform="translate(42 113) scale(2.0)"><path d="M12.152 6.896c-.948 0-2.415-1.078-3.96-1.04-2.04.027-3.91 1.183-4.961 3.014-2.117 3.675-.546 9.103 1.519 12.09 1.013 1.454 2.208 3.09 3.792 3.039 1.52-.065 2.09-.987 3.935-.987 1.831 0 2.35.987 3.96.948 1.637-.026 2.676-1.48 3.676-2.948 1.156-1.688 1.636-3.325 1.662-3.415-.039-.013-3.182-1.221-3.22-4.857-.026-3.04 2.48-4.494 2.597-4.559-1.429-2.09-3.623-2.324-4.39-2.376-2-.156-3.675 1.09-4.61 1.09zM15.53 3.83c.843-1.012 1.4-2.427 1.245-3.83-1.207.052-2.662.805-3.532 1.818-.78.896-1.454 2.338-1.273 3.714 1.338.104 2.715-.688 3.559-1.701" fill="#000000"/></g><text x="132" y="91" class="h">Open Start</text><text x="132" y="130" class="b">right-click</text><text x="132" y="168" class="mono">Start.app</text></g><g transform="translate(768,286)"><rect width="250" height="245" rx="30" class="card2"/><circle cx="66" cy="62" r="36" class="yellow"/><text x="66" y="75" text-anchor="middle" font-size="40" font-weight="780">3</text><circle cx="66" cy="137" r="34" fill="#fff" stroke="#ddd6c6" stroke-width="2"/><g transform="translate(42 113) scale(2.0)"><path d="M8.691 2.188C3.891 2.188 0 5.476 0 9.53c0 2.212 1.17 4.203 3.002 5.55a.59.59 0 0 1 .213.665l-.39 1.48c-.019.07-.048.141-.048.213 0 .163.13.295.29.295a.326.326 0 0 0 .167-.054l1.903-1.114a.864.864 0 0 1 .717-.098 10.16 10.16 0 0 0 2.837.403c.276 0 .543-.027.811-.05-.857-2.578.157-4.972 1.932-6.446 1.703-1.415 3.882-1.98 5.853-1.838-.576-3.583-4.196-6.348-8.596-6.348zM5.785 5.991c.642 0 1.162.529 1.162 1.18a1.17 1.17 0 0 1-1.162 1.178A1.17 1.17 0 0 1 4.623 7.17c0-.651.52-1.18 1.162-1.18zm5.813 0c.642 0 1.162.529 1.162 1.18a1.17 1.17 0 0 1-1.162 1.178 1.17 1.17 0 0 1-1.162-1.178c0-.651.52-1.18 1.162-1.18zm5.34 2.867c-1.797-.052-3.746.512-5.28 1.786-1.72 1.428-2.687 3.72-1.78 6.22.942 2.453 3.666 4.229 6.884 4.229.826 0 1.622-.12 2.361-.336a.722.722 0 0 1 .598.082l1.584.926a.272.272 0 0 0 .14.047c.134 0 .24-.111.24-.247 0-.06-.023-.12-.038-.177l-.327-1.233a.582.582 0 0 1-.023-.156.49.49 0 0 1 .201-.398C23.024 18.48 24 16.82 24 14.98c0-3.21-2.931-5.837-6.656-6.088V8.89c-.135-.01-.27-.027-.407-.03zm-2.53 3.274c.535 0 .969.44.969.982a.976.976 0 0 1-.969.983.976.976 0 0 1-.969-.983c0-.542.434-.982.97-.982zm4.844 0c.535 0 .969.44.969.982a.976.976 0 0 1-.969.983.976.976 0 0 1-.969-.983c0-.542.434-.982.969-.982z" fill="#07C160"/></g><text x="132" y="91" class="h">WeChat</text><text x="132" y="130" class="b">opt-in</text><text x="132" y="168" class="mono">Connect.app</text></g><g transform="translate(1104,286)"><rect width="250" height="245" rx="30" class="card2"/><circle cx="66" cy="62" r="36" class="yellow"/><text x="66" y="75" text-anchor="middle" font-size="40" font-weight="780">4</text><circle cx="66" cy="137" r="34" fill="#fff" stroke="#ddd6c6" stroke-width="2"/><g transform="translate(42 113) scale(2.0)"><path d="M22.27 19.385H1.73A1.73 1.73 0 010 17.655V6.345a1.73 1.73 0 011.73-1.73h20.54A1.73 1.73 0 0124 6.345v11.308a1.73 1.73 0 01-1.73 1.731zM5.769 15.923v-4.5l2.308 2.885 2.307-2.885v4.5h2.308V8.078h-2.308l-2.307 2.885-2.308-2.885H3.46v7.847zM21.232 12h-2.309V8.077h-2.307V12h-2.308l3.461 4.039z" fill="#000000"/></g><text x="132" y="91" class="h">Output</text><text x="132" y="130" class="b">Markdown</text><text x="132" y="168" class="mono">Output.app</text></g><g transform="translate(430,590)"><rect width="740" height="82" rx="24" fill="#fff8e5" stroke="#f0c84a" stroke-width="2.5"/><g transform="translate(34 20) scale(1.8333333333333333)"><path d="M8.691 2.188C3.891 2.188 0 5.476 0 9.53c0 2.212 1.17 4.203 3.002 5.55a.59.59 0 0 1 .213.665l-.39 1.48c-.019.07-.048.141-.048.213 0 .163.13.295.29.295a.326.326 0 0 0 .167-.054l1.903-1.114a.864.864 0 0 1 .717-.098 10.16 10.16 0 0 0 2.837.403c.276 0 .543-.027.811-.05-.857-2.578.157-4.972 1.932-6.446 1.703-1.415 3.882-1.98 5.853-1.838-.576-3.583-4.196-6.348-8.596-6.348zM5.785 5.991c.642 0 1.162.529 1.162 1.18a1.17 1.17 0 0 1-1.162 1.178A1.17 1.17 0 0 1 4.623 7.17c0-.651.52-1.18 1.162-1.18zm5.813 0c.642 0 1.162.529 1.162 1.18a1.17 1.17 0 0 1-1.162 1.178 1.17 1.17 0 0 1-1.162-1.178c0-.651.52-1.18 1.162-1.18zm5.34 2.867c-1.797-.052-3.746.512-5.28 1.786-1.72 1.428-2.687 3.72-1.78 6.22.942 2.453 3.666 4.229 6.884 4.229.826 0 1.622-.12 2.361-.336a.722.722 0 0 1 .598.082l1.584.926a.272.272 0 0 0 .14.047c.134 0 .24-.111.24-.247 0-.06-.023-.12-.038-.177l-.327-1.233a.582.582 0 0 1-.023-.156.49.49 0 0 1 .201-.398C23.024 18.48 24 16.82 24 14.98c0-3.21-2.931-5.837-6.656-6.088V8.89c-.135-.01-.27-.027-.407-.03zm-2.53 3.274c.535 0 .969.44.969.982a.976.976 0 0 1-.969.983.976.976 0 0 1-.969-.983c0-.542.434-.982.97-.982zm4.844 0c.535 0 .969.44.969.982a.976.976 0 0 1-.969.983.976.976 0 0 1-.969-.983c0-.542.434-.982.969-.982z" fill="#07C160"/></g><text x="96" y="38" class="h">测试方式：手机微信发给自己一条简单内容，带 #2</text><text x="96" y="68" class="b">电脑微信收到后，Sherlockdogs 会整理成本地任务包。</text></g><g transform="translate(96,732)"><rect width="650" height="86" rx="24" fill="#f3f8ff" stroke="#c8dcff" stroke-width="2.5"/><g transform="translate(34 22) scale(1.75)"><path d="M12.152 6.896c-.948 0-2.415-1.078-3.96-1.04-2.04.027-3.91 1.183-4.961 3.014-2.117 3.675-.546 9.103 1.519 12.09 1.013 1.454 2.208 3.09 3.792 3.039 1.52-.065 2.09-.987 3.935-.987 1.831 0 2.35.987 3.96.948 1.637-.026 2.676-1.48 3.676-2.948 1.156-1.688 1.636-3.325 1.662-3.415-.039-.013-3.182-1.221-3.22-4.857-.026-3.04 2.48-4.494 2.597-4.559-1.429-2.09-3.623-2.324-4.39-2.376-2-.156-3.675 1.09-4.61 1.09zM15.53 3.83c.843-1.012 1.4-2.427 1.245-3.83-1.207.052-2.662.805-3.532 1.818-.78.896-1.454 2.338-1.273 3.714 1.338.104 2.715-.688 3.559-1.701" fill="#000000"/></g><text x="94" y="38" class="h">macOS 第一次打开</text><text x="94" y="68" class="b">如果系统拦截，右键 app -> Open，不要只双击。</text></g><g transform="translate(854,732)"><rect width="650" height="86" rx="24" fill="#f7f7f4" stroke="#dedbd2" stroke-width="2.5"/><rect x="36" y="24" width="44" height="34" rx="8" fill="#111"/><text x="58" y="49" text-anchor="middle" font-family="ui-monospace,Menlo" font-size="22" class="light">&gt;_</text><text x="100" y="38" class="h">没进来怎么办</text><text x="100" y="68" class="b">先跑 OneTouchRepair，再发一条 #2 测试。</text></g></svg>